<?xml version="1.0" encoding="UTF-8" standalone="no"?>
<!-- Created with Inkscape (http://www.inkscape.org/) -->

<svg
   xmlns:dc="http://purl.org/dc/elements/1.1/"
   xmlns:cc="http://creativecommons.org/ns#"
   xmlns:rdf="http://www.w3.org/1999/02/22-rdf-syntax-ns#"
   xmlns:svg="http://www.w3.org/2000/svg"
   xmlns="http://www.w3.org/2000/svg"
   xmlns:sodipodi="http://sodipodi.sourceforge.net/DTD/sodipodi-0.dtd"
   xmlns:inkscape="http://www.inkscape.org/namespaces/inkscape"
   width="276mm"
   height="297mm"
   viewBox="0 0 276 297"
   version="1.1"
   id="svg51"
   inkscape:version="0.92.2 (5c3e80d, 2017-08-06)"
   sodipodi:docname="elephant_ui_plane.svg">
  <defs
     id="defs45" />
  <sodipodi:namedview
     id="base"
     pagecolor="#ffffff"
     bordercolor="#666666"
     borderopacity="1.0"
     inkscape:pageopacity="0.0"
     inkscape:pageshadow="2"
     inkscape:zoom="0.35"
     inkscape:cx="156.36477"
     inkscape:cy="471.0439"
     inkscape:document-units="mm"
     inkscape:current-layer="layer1"
     showgrid="false"
     showguides="true"
     inkscape:window-width="1366"
     inkscape:window-height="715"
     inkscape:window-x="-8"
     inkscape:window-y="-8"
     inkscape:window-maximized="1" />
  <metadata
     id="metadata48">
    <rdf:RDF>
      <cc:Work
         rdf:about="">
        <dc:format>image/svg+xml</dc:format>
        <dc:type
           rdf:resource="http://purl.org/dc/dcmitype/StillImage" />
        <dc:title></dc:title>
      </cc:Work>
    </rdf:RDF>
  </metadata>
  <g
     inkscape:label="レイヤー 1"
     inkscape:groupmode="layer"
     id="layer1">
    <path
       style="fill:#0b1728;stroke-width:0.83044499"
       d="m 23.250433,295.2969 c -0.666935,-1.01985 -1.458333,-3.18029 -1.758665,-4.80096 -0.334964,-1.80759 -2.453492,-5.30941 -5.480272,-9.05862 -3.642931,-4.5124 -5.10394,-7.08419 -5.582758,-9.8272 -0.6864031,-3.9322 -0.8255297,-26.32086 -0.32524,-52.33858 0.1656,-8.61209 -0.1946663,-24.31684 -0.8005915,-34.89945 -1.0218446,-17.84674 -0.9903896,-19.90719 0.4340519,-28.43226 0.8446536,-5.05513 1.8159346,-9.93838 2.1584016,-10.85166 1.082245,-2.88613 8.437931,-10.30245 11.986552,-12.08536 7.162476,-3.5986 19.118472,-0.85357 27.155951,6.23487 2.60696,2.29914 9.613901,14.50326 13.598828,23.68535 5.320876,12.26036 10.561098,20.20916 20.064309,30.43515 4.86793,5.23817 10.858371,12.748 13.312088,16.6885 2.453712,3.94051 4.617122,7.16455 4.807562,7.16455 0.19044,0 1.03381,-1.51241 1.87416,-3.3609 l 1.52789,-3.3609 0.59254,3.89142 c 0.32589,2.14027 1.40632,5.54101 2.40095,7.5572 l 1.8084,3.66579 -2.43035,2.0588 c -2.01265,1.70495 -2.40719,2.64104 -2.29557,5.44649 0.0741,1.86323 0.43023,3.67865 0.79134,4.03428 0.3611,0.35563 2.52611,-0.58812 4.81113,-2.09721 2.28502,-1.5091 4.59976,-2.59367 5.14387,-2.41016 0.5441,0.1835 2.22049,-0.29338 3.72528,-1.05974 5.32839,-2.71362 13.11584,-3.83675 19.55307,-2.81999 9.5276,1.50489 11.69756,2.29331 14.99676,5.44886 l 3.13418,2.99771 19.59544,-0.60088 c 14.06389,-0.43125 19.59545,-0.34495 19.59545,0.30572 0,0.51429 1.53896,0.91452 3.55647,0.92492 2.18997,0.0113 4.3539,0.62176 5.6319,1.58884 l 2.07544,1.57051 -2.28217,6.85842 c -1.25519,3.77214 -2.72537,8.89814 -3.26704,11.39111 -0.54169,2.49297 -1.34205,4.99625 -1.77858,5.56284 -0.56312,0.73089 -3.98483,1.03381 -11.77901,1.04275 -6.04194,0.007 -11.46497,0.31242 -12.05117,0.6788 -0.64944,0.40592 2.45624,1.38095 7.94975,2.49587 12.85512,2.60896 24.12158,6.42824 27.44837,9.30491 4.47613,3.87048 6.55047,8.93632 5.86657,14.32703 l -0.57057,4.49746 H 121.4541 24.463043 Z"
       id="path78"
       inkscape:connector-curvature="0" />
    <path
       style="fill:#0b1728;stroke-width:0.83044499"
       d="M 92.580625,184.04027 C 88.070262,175.76813 79.535842,159.91406 73.615254,148.809 67.324089,137.00887 61.955449,127.93301 60.696675,126.96973 59.512051,126.0632 52.887858,121.57216 45.976248,116.98966 l -12.56656,-8.33182 0.156187,-8.27985 c 0.09594,-5.085957 -0.184471,-8.487189 -0.726944,-8.817367 -0.492209,-0.299583 -0.89866,0.122409 -0.91821,0.953322 -0.0193,0.819968 -0.713486,2.744758 -1.542656,4.277314 l -1.507581,2.786462 -0.52879,-7.319138 c -0.290835,-4.02553 -1.284738,-10.100555 -2.208671,-13.500062 -0.923935,-3.39951 -1.686334,-7.200779 -1.694221,-8.447265 -0.02465,-3.895249 -1.415737,-2.488806 -3.030454,3.063903 -1.169971,4.023321 -1.734141,5.006234 -2.300941,4.00878 -0.833432,-1.466673 -0.101505,-11.692902 1.142699,-15.965389 0.43916,-1.508038 0.654072,-2.884094 0.477583,-3.057907 -0.176488,-0.173812 -2.228648,0.636052 -4.560353,1.799695 -2.331706,1.163643 -5.287542,2.11514 -6.5685251,2.114436 -2.3257002,-0.0014 -2.3248594,-0.0034 0.5827771,-1.442216 3.920985,-1.940317 8.70598,-8.414322 11.286362,-15.270232 2.476213,-6.57914 2.636754,-7.810276 0.82541,-6.329796 -2.23188,1.824201 -4.775068,5.799156 -6.777464,10.593046 -2.259945,5.410484 -2.498709,3.939346 -0.655773,-4.040529 1.560421,-6.756593 7.796478,-17.508897 13.430745,-23.157496 5.479995,-5.493934 10.372049,-7.719587 17.197231,-7.823928 4.936919,-0.07547 5.968991,-0.386765 8.923884,-2.691587 4.424325,-3.4509831 12.059409,-6.8329502 16.55178,-7.3316251 2.523898,-0.2801649 5.825029,0.2745892 10.891786,1.830365 11.47534,3.5235611 19.983581,7.8556681 31.502261,16.0398731 11.66662,8.289326 14.24049,9.615504 24.87351,12.815997 l 7.11293,2.14096 -7.80867,-0.435462 -7.80866,-0.43546 2.89387,3.91036 c 6.87221,9.28615 9.48509,17.912738 8.73367,28.834848 -0.4044,5.878174 -2.767,15.670937 -3.58614,14.864222 -0.19203,-0.189112 0.096,-2.434004 0.64013,-4.988644 0.84682,-3.97605 0.77865,-5.302794 -0.47351,-9.214861 -0.80453,-2.513534 -1.76865,-4.570062 -2.14249,-4.570062 -0.37384,0 -1.14472,2.158025 -1.71307,4.79561 -0.56835,2.637584 -1.84365,6.351927 -2.83399,8.254095 -1.73393,3.330376 -8.18328,11.843781 -8.63516,11.398754 -0.12104,-0.119211 0.66862,-2.423886 1.7548,-5.121522 1.08618,-2.697627 2.22813,-5.739205 2.53768,-6.759057 0.98321,-3.239427 -0.72073,-2.000731 -3.18027,2.311924 -2.07352,3.6358 -8.84522,9.76299 -10.85678,9.823465 -0.37378,0.01122 0.53688,-1.647801 2.0237,-3.686756 3.0438,-4.174136 2.78626,-5.584441 -0.54809,-3.001413 -1.22156,0.946299 -3.48003,1.953153 -5.01883,2.237457 -1.9995,0.369415 -3.64672,1.589973 -5.77282,4.277522 -1.63624,2.068337 -2.97498,4.171531 -2.97498,4.673777 0,0.502237 1.1659,2.306152 2.59089,4.008682 1.42498,1.702545 2.38631,3.620555 2.13628,4.262265 -0.25004,0.64169 -2.07494,1.62086 -4.05532,2.17591 -1.980389,0.55505 -3.958442,1.31753 -4.395679,1.69438 -0.437237,0.37686 -1.620795,0.6852 -2.630119,0.6852 -1.009332,0 -2.051896,0.55628 -2.316822,1.23618 -0.264921,0.6799 -0.964849,1.23619 -1.555388,1.23619 -0.590551,0 -1.995293,1.71082 -3.121654,3.80183 -2.02319,3.75591 -9.157761,12.21831 -9.782453,11.60309 -0.177392,-0.1747 0.247262,-1.66066 0.943676,-3.30213 0.696414,-1.64147 1.265824,-3.45998 1.265358,-4.04112 -5.86e-4,-0.83304 -5.854373,-4.73878 -9.406231,-6.27607 -0.349084,-0.1511 -0.643073,2.07404 -0.653307,4.94474 l -0.0186,5.21944 -1.647489,-2.06031 c -0.906116,-1.13317 -2.103092,-3.26559 -2.659943,-4.7387 -0.556854,-1.47312 -1.219234,-2.67049 -1.471962,-2.66081 -0.618893,0.0237 -4.650831,5.79626 -5.320912,7.61798 -0.373727,1.01604 0.278511,2.13425 2.163175,3.70855 4.412,3.68547 10.198515,9.52521 11.624383,11.73132 1.25364,1.93965 1.496834,1.99776 4.152481,0.9923 1.551472,-0.58741 3.094061,-1.14369 3.427976,-1.23619 0.333919,-0.0925 4.924415,8.52042 10.201107,19.13981 7.850899,15.79999 9.958463,20.84548 11.600023,27.77043 1.69365,7.1446 1.87116,9.11096 1.13985,12.6268 -0.4764,2.29039 -1.1219,4.16435 -1.43443,4.16435 -0.31253,0 -4.258529,-6.76811 -8.768898,-15.04025 z"
       id="path80"
       inkscape:connector-curvature="0" />
    <path
       style="fill:#0b1728;stroke-width:0.4152225"
       d="m 102.05666,210.07922 c -0.1467,-0.45519 -1.90101,-2.91503 -3.898471,-5.46631 -1.99746,-2.55128 -4.18647,-5.37748 -4.86447,-6.28044 -2.052991,-2.73421 -8.283912,-10.50989 -10.036011,-12.52414 -2.136809,-2.45651 -8.980935,-12.71525 -11.067684,-16.58947 -0.894864,-1.66139 -3.374334,-7.35564 -5.509937,-12.6539 -5.607793,-13.91247 -9.434348,-19.8089 -14.55386,-22.42638 -4.062881,-2.07726 -14.999075,-5.25235 -20.151715,-5.85062 -3.199986,-0.37155 -7.845425,0.65746 -11.920176,2.64044 -1.838553,0.89474 -3.399677,1.5708 -3.469165,1.50236 -0.06949,-0.0684 1.162814,-1.06562 2.738449,-2.21597 3.956881,-2.88887 7.766989,-4.60398 10.228599,-4.60439 2.904716,-5.8e-4 12.796987,2.28983 17.659832,4.08869 8.059498,2.98138 9.189909,3.81084 13.049253,9.57515 2.910958,4.34781 4.4533,7.42666 7.707678,15.38618 6.392725,15.63524 6.027011,15.02926 20.889376,34.61318 4.299849,5.66585 9.102517,12.02344 10.672596,14.12797 1.570076,2.10454 3.053866,3.76105 3.297306,3.68114 0.24343,-0.0799 0.92831,-1.46729 1.52193,-3.08305 1.29089,-3.51356 1.6813,-4.00538 1.68593,-2.12384 0.004,1.49052 -2.82033,9.03102 -3.38221,9.03102 -0.18179,0 -0.45056,-0.37243 -0.59725,-0.82762 z"
       id="path82"
       inkscape:connector-curvature="0" />
  </g>
</svg>
