<?xml version="1.0" encoding="UTF-8" standalone="no"?>
<!-- Created with Inkscape (http://www.inkscape.org/) -->

<svg
   xmlns:dc="http://purl.org/dc/elements/1.1/"
   xmlns:cc="http://creativecommons.org/ns#"
   xmlns:rdf="http://www.w3.org/1999/02/22-rdf-syntax-ns#"
   xmlns:svg="http://www.w3.org/2000/svg"
   xmlns="http://www.w3.org/2000/svg"
   xmlns:sodipodi="http://sodipodi.sourceforge.net/DTD/sodipodi-0.dtd"
   xmlns:inkscape="http://www.inkscape.org/namespaces/inkscape"
   width="210mm"
   height="297mm"
   viewBox="0 0 210 297"
   version="1.1"
   id="svg28"
   inkscape:version="0.92.2 (5c3e80d, 2017-08-06)"
   sodipodi:docname="描画.svg">
  <defs
     id="defs22" />
  <sodipodi:namedview
     id="base"
     pagecolor="#ffffff"
     bordercolor="#666666"
     borderopacity="1.0"
     inkscape:pageopacity="0.0"
     inkscape:pageshadow="2"
     inkscape:zoom="0.35"
     inkscape:cx="11.687289"
     inkscape:cy="560"
     inkscape:document-units="mm"
     inkscape:current-layer="layer1"
     showgrid="false"
     inkscape:window-width="1366"
     inkscape:window-height="715"
     inkscape:window-x="-8"
     inkscape:window-y="-8"
     inkscape:window-maximized="1" />
  <metadata
     id="metadata25">
    <rdf:RDF>
      <cc:Work
         rdf:about="">
        <dc:format>image/svg+xml</dc:format>
        <dc:type
           rdf:resource="http://purl.org/dc/dcmitype/StillImage" />
        <dc:title></dc:title>
      </cc:Work>
    </rdf:RDF>
  </metadata>
  <g
     inkscape:label="レイヤー 1"
     inkscape:groupmode="layer"
     id="layer1">
    <path
       style="fill:#00002b;stroke-width:2.85714293"
       d="m 431.50318,1078.1656 c -5.77326,-0.6093 -11.94592,-2.8538 -13.71704,-4.9879 -3.83762,-4.6241 -7.2926,-40.8383 -4.8316,-50.6437 0.952,-3.7931 14.44624,-24.39157 29.98721,-45.77449 l 28.25629,-38.87802 2.05553,-56.70912 c 1.74051,-48.01811 1.30386,-60.41877 -2.84914,-80.91468 -6.0458,-29.83726 -4.3038,-70.55335 4.4855,-104.8402 5.09661,-19.88175 5.78866,-29.09066 4.61633,-61.42858 -1.86466,-51.43522 -4.16485,-68.74262 -9.70727,-73.04065 -2.533,-1.96429 -10.89952,-3.57143 -18.59228,-3.57143 -11.16185,0 -16.54396,1.8364 -26.64746,9.09217 -16.48793,11.84074 -20.91651,8.68117 -15.64474,-11.16174 7.3883,-27.80952 7.20748,-37.03092 -0.91544,-46.68446 -4.0852,-4.855 -7.42764,-11.12666 -7.42764,-13.93703 0,-7.97011 9.82,-18.52697 24.28022,-26.10208 12.44692,-6.52046 13.42671,-6.63166 16.92363,-1.92115 2.27591,3.06575 7.49648,5 13.49511,5 7.69958,0 10.72188,-1.67345 14.19013,-7.85714 6.1812,-11.02071 3.94277,-17.85714 -5.84689,-17.85714 -7.72222,0 -8.0271,-0.58295 -9.90838,-18.94532 -2.07253,-20.22911 -6.47226,-32.27825 -16.12774,-44.16754 -4.80967,-5.9224 -5.60919,-9.52709 -4.00717,-18.06658 2.78779,-14.8602 20.07406,-39.62788 44.08399,-63.16332 20.12077,-19.72313 20.32796,-20.07942 18.7961,-32.32276 -1.9572,-15.64298 -3.85194,-18.81659 -8.78816,-14.71988 -3.06878,2.54686 -4.19972,0.70568 -5.69618,-9.27341 -1.9553,-13.03887 0.62864,-29.64456 8.90111,-57.20304 2.7131,-9.0383 4.07282,-17.29337 3.02159,-18.3446 -3.65184,-3.65184 -17.02876,12.01979 -24.80798,29.06359 -4.30344,9.42857 -10.53966,27.95396 -13.85825,41.16753 -9.58279,38.15551 -12.71297,32.67934 -4.4108,-7.71655 9.41483,-45.80973 32.663,-87.00697 67.08122,-118.87218 9.97247,-9.23274 22.32775,-18.540004 27.45619,-20.682803 31.18591,-13.030305 84.78434,9.377103 90.79931,37.959643 1.55737,7.40047 3.60423,9.31939 11.52586,10.8055 13.5873,2.54899 21.04114,9.80175 23.69229,23.05315 1.98271,9.91031 3.41024,11.55521 10.74563,12.38189 10.10383,1.13867 18.45917,7.96422 18.45917,15.07946 0,2.83093 8.9232,16.81993 19.82934,31.08667 31.11417,40.70164 32.31269,43.16251 32.09869,65.90692 -0.16515,17.53881 -1.03869,20.60337 -7.60986,26.69331 -9.42897,8.73848 -33.64103,13.13746 -72.30883,13.13746 -26.02699,0 -29.26004,0.57716 -32.00934,5.71429 -1.72262,3.21873 -5.98235,5.71428 -9.7539,5.71428 -8.92446,0 -13.10998,10.60391 -17.17953,43.52386 -2.81513,22.77254 -4.01858,26.32286 -9.79654,28.90106 -7.85571,3.50531 -7.8885,3.3122 8.07738,47.57508 6.51847,18.07143 19.58929,46.6478 29.04626,63.50309 9.45698,16.85525 16.76769,32.86223 16.24601,35.57105 -0.68399,3.55172 -5.72575,5.80415 -18.0798,8.07729 -9.42222,1.73366 -20.98845,5.04769 -25.70274,7.36449 l -8.57143,4.21234 0.62561,50.31154 c 0.55707,44.79974 1.394,52.6164 7.63949,71.35017 13.95211,41.85026 21.62522,103.12712 21.77527,173.89575 0.0598,28.19054 0.55298,30.72185 8.17695,41.96811 4.59179,6.77346 9.63991,19.7276 11.63045,29.84529 1.93441,9.83242 7.90287,29.99302 13.26324,44.80128 9.77511,27.00413 12.28414,47.59013 7.00302,57.45793 -3.60953,6.7445 -30.32906,18.1262 -37.33366,15.903 -10.5989,-3.3639 -16.46792,-15.2902 -21.46151,-43.6113 -2.86693,-16.2599 -6.96755,-30.16411 -9.88185,-33.50717 -4.17573,-4.79009 -5.26238,-13.95303 -6.71866,-56.65386 -1.57527,-46.19023 -2.54616,-53.46486 -10.41332,-78.02451 -15.70915,-49.04075 -33.13968,-151.61475 -38.53196,-226.7502 -2.88323,-40.17463 -3.61035,-42.85715 -11.61682,-42.85715 -4.6506,0 -7.1231,1.68449 -7.33904,5 -0.17911,2.75 -0.68101,22.35715 -1.11535,43.57143 -0.43434,21.21429 -4.12194,69.42857 -8.19468,107.14286 -8.92608,82.65723 -13.21759,156.25071 -13.21981,226.7018 -0.001,46.4487 -0.60589,53.2795 -5.30912,60 -2.9191,4.1711 -8.91147,15.6889 -13.31637,25.5949 -12.59807,28.3314 -19.03428,31.283 -59.01584,27.0635 z m 86.19691,-718.83845 c 0.0134,-12.95542 -0.36344,-13.64819 -6.41438,-11.79318 -12.26953,3.76144 -14.32482,7.34501 -12.59404,21.95876 2.3253,19.63353 4.48848,21.72698 12.32751,11.93013 4.9015,-6.12566 6.67048,-11.97619 6.68091,-22.09571 z m 158.35195,-92.256 c 7.11036,-2.72851 5.30193,-9.14291 -3.92256,-13.91308 -4.64307,-2.40102 -12.53324,-9.45657 -17.53372,-15.679 -7.52203,-9.36016 -10.01089,-10.8216 -14.41519,-8.46449 -6.67812,3.57402 -7.07818,17.61705 -0.65558,23.01241 4.50642,3.78565 26.19843,15.59838 30.09848,16.3906 1.05004,0.21328 3.9429,-0.3926 6.42857,-1.34644 z"
       id="path41"
       inkscape:connector-curvature="0"
       transform="scale(0.26458333)" />
    <path
       style="fill:#00002b;stroke-width:2.85714293"
       d="m 187,1041.1989 c -2.65359,-1.0708 -3.57143,-13.4954 -3.57143,-48.34587 V 945.94826 H 162 140.57143 v 47.14285 47.14289 H 74.857143 9.1428571 V 873.09111 705.94826 H 74.857143 140.57143 v 47.14285 47.14286 H 162 183.42857 v -47.14286 -47.14285 h 65.71429 65.71428 v 168.57143 168.57141 l -62.14285,-0.2257 c -34.17858,-0.124 -63.75,-0.8741 -65.71429,-1.6667 z"
       id="path43"
       inkscape:connector-curvature="0"
       transform="scale(0.26458333)" />
  </g>
</svg>
